<svg xmlns="http://www.w3.org/2000/svg" width="1200" height="280" viewBox="0 0 1200 280" fill="none" role="img" aria-labelledby="title desc">
  <title id="title">Diogo Esteves</title>
  <style>
    .signal { stroke-dasharray: 5 95; stroke-dashoffset: 5; opacity: 0;
      animation: flow 9s linear infinite; }
    .signal-second { animation-delay: -4.5s; }
    .halo { transform-box: fill-box; transform-origin: center;
      animation: breathe 6s ease-in-out infinite; }
    .halo-second { animation-delay: -3s; }
    @keyframes flow {
      0% { stroke-dashoffset: 5; opacity: 0; }
      8%, 78% { opacity: 0.9; }
      90%, 100% { stroke-dashoffset: -100; opacity: 0; }
    }
    @keyframes breathe {
      0%, 100% { transform: scale(1); opacity: 0.65; }
      50% { transform: scale(1.22); opacity: 1; }
    }
    @media (prefers-reduced-motion: reduce) {
      .signal { animation: none; opacity: 0; }
      .halo { animation: none; }
    }
  </style>
  <desc id="desc">Biologia, dados e software. Uma rede contínua em verde, azul e âmbar liga formas orgânicas e geométricas.</desc>
  <defs>
    <linearGradient id="bg" x1="0" y1="0" x2="1200" y2="280" gradientUnits="userSpaceOnUse">
      <stop stop-color="#10342F" />
      <stop offset="0.52" stop-color="#122B38" />
      <stop offset="1" stop-color="#262743" />
    </linearGradient>
    <linearGradient id="line" x1="752" y1="96" x2="1098" y2="250" gradientUnits="userSpaceOnUse">
      <stop stop-color="#6CE0B2" />
      <stop offset="0.5" stop-color="#F3BE82" />
      <stop offset="1" stop-color="#A6B5FF" />
    </linearGradient>
    <radialGradient id="bio">
      <stop stop-color="#45C597" stop-opacity="0.16" />
      <stop offset="1" stop-color="#45C597" stop-opacity="0" />
    </radialGradient>
    <radialGradient id="digital">
      <stop stop-color="#9B87EF" stop-opacity="0.22" />
      <stop offset="1" stop-color="#9B87EF" stop-opacity="0" />
    </radialGradient>
  </defs>
  <rect width="1200" height="280" rx="16" fill="url(#bg)" />
  <path d="M48 38H98" stroke="#6CE0B2" stroke-width="4" />
  <text x="48" y="76" font-family="Segoe UI,Arial,sans-serif" font-size="18" font-weight="600" letter-spacing="3" fill="#A2D2CE">BIOLOGIA · DADOS · SOFTWARE</text>
  <text x="44" y="164" font-family="Georgia,Times New Roman,serif" font-size="80" letter-spacing="-2" fill="#F3F1E9">Diogo Esteves</text>
  <text x="48" y="231" font-family="Segoe UI,Arial,sans-serif" font-size="17" letter-spacing="1.5" fill="#A1BBC7">BRAGA, PORTUGAL</text>
  <g transform="translate(110 5) scale(0.9)">
    <ellipse cx="826" cy="173" rx="200" ry="150" fill="url(#bio)" />
    <ellipse cx="1040" cy="170" rx="156" ry="150" fill="url(#digital)" />
    <ellipse cx="823" cy="178" rx="79" ry="98" transform="rotate(-25 823 178)" stroke="#6CE0B2" stroke-opacity="0.16" />
    <g stroke="#7E9AAD" stroke-opacity="0.22">
      <path d="M762 49V292M822 49V292M882 49V292M942 49V292M1002 49V292M1062 49V292M1122 49V292" />
      <path d="M738 80H1150M738 140H1150M738 200H1150M738 260H1150" />
    </g>
    <g stroke="url(#line)" stroke-width="1.7" stroke-opacity="0.8">
      <path d="M790 170L841 114L903 144L936 83L1000 129L1062 98L1111 152L1042 190L1094 247L982 254L961 203L890 226L834 269L790 170L759 227" />
      <path d="M841 114L845 190L903 144L961 203L1000 129L1042 190L961 203L982 254M845 190L890 226L903 144M1062 98L1042 190" />
    </g>
    <g fill="none" stroke-linecap="round" stroke-width="3">
      <path class="signal" d="M759 227L790 170L841 114L903 144L961 203L1042 190L1111 152" pathLength="100" stroke="#C0FCE4" />
      <path class="signal signal-second" d="M834 269L890 226L903 144L936 83L1000 129L1062 98" pathLength="100" stroke="#FFD09A" />
    </g>
    <g fill="#6CE0B2">
      <circle cx="790" cy="170" r="10" />
      <circle cx="841" cy="114" r="7" />
      <circle cx="845" cy="190" r="5" />
      <circle cx="903" cy="144" r="14" fill="#F3BE82" />
      <circle cx="936" cy="83" r="5" />
      <circle cx="890" cy="226" r="8" fill="#EBC992" />
      <circle cx="834" cy="269" r="4" />
      <circle cx="759" cy="227" r="4" />
    </g>
    <g fill="#A6B5FF">
      <circle cx="961" cy="203" r="11" />
      <circle cx="1000" cy="129" r="7" />
      <circle cx="1062" cy="98" r="4" />
      <circle cx="1042" cy="190" r="8" />
      <circle cx="1111" cy="152" r="5" />
      <circle cx="1094" cy="247" r="6" />
      <circle cx="982" cy="254" r="5" />
    </g>
    <circle class="halo" cx="903" cy="144" r="25" stroke="#F3BE82" stroke-opacity="0.4" />
    <circle class="halo halo-second" cx="961" cy="203" r="21" stroke="#A6B5FF" stroke-opacity="0.4" />
  </g>
</svg>
